<?xml version="1.0" standalone="no"?>
<!DOCTYPE svg PUBLIC "-//W3C//DTD SVG 20010904//EN"
 "http://www.w3.org/TR/2001/REC-SVG-20010904/DTD/svg10.dtd">
<svg version="1.0" xmlns="http://www.w3.org/2000/svg"
 width="443.000000pt" height="184.000000pt" viewBox="0 0 443.000000 184.000000"
 preserveAspectRatio="xMidYMid meet">

<g transform="translate(0.000000,184.000000) scale(0.100000,-0.100000)"
fill="#000000" stroke="none">
<path d="M1600 1785 c-20 -24 -7 -245 18 -315 28 -79 54 -120 76 -120 21 0 20
5 -20 100 -23 55 -28 83 -32 184 l-5 119 39 -5 c81 -11 264 -97 264 -125 0
-22 15 -21 90 4 63 22 93 26 185 26 103 0 160 -11 245 -47 10 -4 19 2 25 16
12 28 154 100 238 121 72 19 72 19 64 -109 -5 -66 -16 -122 -37 -186 -33 -97
-29 -132 8 -80 54 75 92 268 75 377 -7 41 -12 51 -30 53 -55 8 -238 -60 -327
-121 l-36 -24 -58 20 c-79 27 -242 27 -328 0 l-60 -20 -35 24 c-56 39 -175 92
-241 108 -80 19 -102 19 -118 0z"/>
<path d="M2664 1661 c-59 -20 -114 -57 -114 -77 0 -20 11 -18 76 17 l59 31 3
-27 c2 -14 -1 -40 -7 -57 -11 -30 -7 -48 8 -48 13 0 42 72 48 120 7 58 -5 64
-73 41z"/>
<path d="M1695 1660 c-9 -15 4 -88 22 -127 18 -38 49 -46 39 -10 -3 12 -9 39
-12 60 -8 47 7 49 76 10 55 -31 75 -25 40 12 -44 47 -148 82 -165 55z"/>
<path d="M1880 1357 c-24 -13 -45 -28 -48 -35 -7 -22 27 -24 61 -3 52 32 96
25 140 -20 23 -24 37 -24 37 -1 0 36 -70 82 -124 82 -13 0 -42 -10 -66 -23z"/>
<path d="M2413 1361 c-31 -19 -53 -49 -53 -70 0 -18 15 -13 55 19 44 35 82 38
119 9 26 -21 57 -23 63 -4 5 17 -69 58 -112 62 -28 3 -49 -2 -72 -16z"/>
<path d="M1323 1324 c-7 -3 -13 -11 -13 -18 0 -10 32 -15 118 -19 124 -6 206
-26 330 -82 62 -28 95 -27 57 2 -34 26 -140 71 -217 93 -71 20 -250 36 -275
24z"/>
<path d="M2895 1315 c-142 -27 -317 -106 -292 -132 3 -3 44 11 90 31 123 53
227 77 335 79 76 2 92 5 90 17 -4 20 -129 23 -223 5z"/>
<path d="M2145 1211 c-7 -12 7 -42 29 -61 46 -37 -6 -140 -70 -140 -38 0 -74
29 -74 59 0 10 -6 24 -13 30 -36 29 -37 -46 -1 -88 45 -54 125 -54 175 1 24
24 30 27 35 14 12 -30 72 -59 111 -53 50 8 113 74 113 117 0 24 -37 8 -51 -22
-29 -66 -99 -75 -140 -18 -32 45 -32 64 1 105 17 21 29 43 27 49 -5 14 -133
20 -142 7z"/>
<path d="M1492 1159 c-61 -10 -185 -60 -222 -89 -19 -14 -22 -22 -14 -30 9 -9
25 -4 65 18 114 64 281 91 427 69 56 -8 69 3 30 24 -29 16 -216 21 -286 8z"/>
<path d="M2658 1153 c-57 -23 -47 -36 20 -26 31 4 102 7 157 6 113 -2 234 -34
299 -78 38 -26 56 -25 56 0 0 21 -108 73 -198 96 -96 24 -278 26 -334 2z"/>
<path d="M1650 1053 c-81 -17 -179 -62 -246 -113 -67 -51 -128 -125 -120 -146
5 -12 22 0 73 54 102 104 192 147 416 196 15 4 27 11 27 16 0 14 -71 10 -150
-7z"/>
<path d="M2625 1060 c-8 -12 -4 -13 114 -34 51 -10 121 -28 155 -42 77 -31
191 -114 218 -159 20 -35 48 -47 48 -21 0 26 -81 115 -141 155 -32 22 -85 49
-116 61 -110 41 -264 63 -278 40z"/>
<path d="M1855 950 c-9 -15 21 -65 57 -95 49 -42 165 -94 237 -106 129 -23
293 33 386 132 33 36 44 54 37 61 -8 8 -26 -2 -61 -34 -58 -52 -139 -93 -227
-115 -57 -14 -69 -14 -138 1 -99 23 -184 66 -235 121 -45 49 -47 50 -56 35z"/>
<path d="M2666 855 c-5 -15 18 -45 35 -45 16 0 22 29 9 45 -16 19 -36 19 -44
0z"/>
<path d="M1820 771 c0 -22 26 -61 107 -163 110 -138 159 -245 192 -412 11 -55
22 -112 23 -125 6 -55 25 -28 37 51 18 123 56 229 114 316 69 103 211 250 265
274 29 13 42 25 42 38 0 33 -37 24 -92 -22 -193 -160 -283 -280 -334 -441
l-18 -58 -13 62 c-17 85 -83 212 -165 317 -37 48 -82 108 -100 134 -34 49 -58
61 -58 29z"/>
<path d="M74 600 c-28 -11 -54 -48 -54 -76 0 -28 40 -76 85 -104 28 -17 35
-28 35 -52 0 -29 -1 -30 -37 -24 -71 12 -77 11 -81 -6 -5 -25 42 -51 93 -52
56 -1 84 25 92 82 5 36 2 45 -24 69 -16 15 -43 36 -61 45 -63 34 -49 84 20 73
34 -6 38 -5 38 14 0 34 -58 50 -106 31z"/>
<path d="M420 452 c0 -164 2 -172 41 -172 6 0 8 65 7 163 -3 159 -3 162 -25
165 l-23 3 0 -159z"/>
<path d="M1180 556 c0 -55 0 -56 -29 -56 -16 0 -39 -8 -51 -18 -19 -15 -22
-28 -22 -83 0 -36 5 -75 11 -87 14 -26 44 -36 68 -23 12 6 25 6 36 -1 38 -21
47 -4 46 89 -1 48 -4 120 -8 158 -5 63 -8 70 -28 73 -22 3 -23 0 -23 -52z m0
-156 c0 -48 -4 -61 -19 -69 -22 -12 -31 2 -31 52 0 51 11 77 31 77 17 0 19 -8
19 -60z"/>
<path d="M3070 451 c0 -151 1 -160 20 -166 33 -10 40 3 40 71 l0 64 30 0 30 0
0 -64 c0 -49 4 -65 16 -70 43 -16 44 -13 44 142 0 156 -9 192 -44 179 -12 -5
-16 -20 -16 -72 l0 -65 -30 0 c-33 0 -38 10 -42 90 -3 38 -6 45 -25 48 l-23 3
0 -160z"/>
<path d="M3682 448 c3 -160 3 -163 26 -166 22 -3 22 -3 22 146 0 83 -3 157 -6
166 -3 9 -15 16 -25 16 -19 0 -19 -8 -17 -162z"/>
<path d="M3770 452 c0 -164 2 -172 41 -172 6 0 8 65 7 163 -3 159 -3 162 -25
165 l-23 3 0 -159z"/>
<path d="M3872 601 c-21 -13 -10 -46 16 -49 27 -4 40 22 22 43 -14 17 -20 18
-38 6z"/>
<path d="M3986 521 c-9 -16 -25 -31 -37 -34 -22 -6 -18 -27 7 -27 11 0 14 -15
14 -65 0 -76 15 -115 44 -115 20 0 21 4 18 89 -3 86 -3 90 19 93 30 4 37 28 9
28 -15 0 -25 9 -33 30 -14 37 -23 38 -41 1z"/>
<path d="M252 487 c-17 -20 0 -36 38 -34 28 2 35 -2 35 -17 0 -13 -10 -22 -28
-27 -42 -11 -57 -28 -57 -65 0 -51 40 -79 79 -55 9 6 21 5 32 -2 10 -6 21 -8
26 -4 4 4 7 46 7 92 0 103 -14 125 -79 125 -24 0 -47 -6 -53 -13z m78 -126 c0
-29 -24 -45 -40 -26 -10 12 -10 18 0 30 17 21 40 19 40 -4z"/>
<path d="M503 487 c3 -7 17 -55 33 -105 23 -78 31 -93 51 -98 14 -4 28 -3 32
2 5 5 20 55 33 112 l26 102 -24 0 c-27 0 -27 0 -46 -90 l-14 -65 -19 78 c-18
74 -20 77 -48 77 -20 0 -28 -4 -24 -13z"/>
<path d="M721 491 c-23 -15 -6 -36 30 -36 27 0 34 -4 34 -20 0 -13 -10 -22
-34 -29 -18 -5 -38 -19 -43 -32 -24 -51 24 -110 69 -85 14 7 23 7 31 -1 6 -6
18 -8 27 -4 15 5 16 19 13 97 -2 76 -6 93 -22 105 -22 16 -83 19 -105 5z m69
-135 c0 -27 -28 -43 -36 -21 -9 21 3 45 21 45 9 0 15 -9 15 -24z"/>
<path d="M892 393 c3 -108 3 -108 28 -108 24 0 25 2 30 85 4 70 8 85 23 88 15
3 17 -6 17 -81 0 -68 3 -86 16 -91 41 -16 44 -10 44 87 0 78 -3 97 -18 110
-21 19 -45 21 -72 7 -13 -7 -21 -7 -25 0 -3 5 -15 10 -26 10 -19 0 -20 -6 -17
-107z"/>
<path d="M1295 486 c-24 -17 -33 -128 -13 -166 27 -50 128 -48 144 4 15 44 8
135 -11 156 -22 24 -91 27 -120 6z m80 -66 c10 -56 -11 -110 -37 -94 -10 6
-11 118 -1 127 16 17 32 4 38 -33z"/>
<path d="M3290 406 c0 -91 1 -96 25 -112 21 -14 31 -15 51 -5 17 8 31 8 44 1
37 -20 40 -13 40 100 l0 110 -30 0 -30 0 0 -84 c0 -75 -2 -84 -20 -89 -18 -5
-19 1 -22 82 -3 86 -3 86 -30 89 l-28 3 0 -95z"/>
<path d="M3507 482 c-23 -26 -24 -154 -1 -176 22 -23 61 -30 103 -20 54 13 48
39 -9 39 -41 0 -45 2 -48 27 -3 25 0 27 40 30 41 3 43 5 46 36 5 53 -20 82
-72 82 -29 0 -48 -6 -59 -18z m73 -26 c0 -2 3 -11 6 -20 5 -12 0 -16 -20 -16
-28 0 -29 1 -20 24 5 14 34 24 34 12z"/>
<path d="M3860 396 c0 -96 2 -105 20 -111 11 -3 24 -3 30 0 6 3 10 51 10 111
l0 104 -30 0 -30 0 0 -104z"/>
<path d="M4107 493 c-4 -3 -7 -14 -7 -24 0 -15 7 -18 38 -16 31 2 37 -1 37
-17 0 -13 -10 -22 -28 -27 -43 -11 -57 -28 -57 -65 0 -44 38 -73 74 -56 17 7
27 7 34 0 6 -6 18 -8 27 -4 15 5 17 19 14 90 -5 103 -20 126 -84 126 -23 0
-45 -3 -48 -7z m73 -132 c0 -10 -7 -24 -15 -31 -12 -10 -16 -9 -21 4 -3 9 -4
23 0 31 8 21 36 19 36 -4z"/>
<path d="M4286 478 c-9 -12 -16 -30 -16 -38 0 -18 32 -51 68 -69 34 -18 21
-36 -24 -36 -48 0 -53 -23 -10 -43 92 -45 150 76 60 124 -44 23 -45 39 -2 39
18 0 33 6 36 14 12 36 -88 44 -112 9z"/>
</g>
</svg>
